<svg width="25" height="31" viewBox="0 0 25 31" fill="none" xmlns="http://www.w3.org/2000/svg">
<path d="M24.6924 0.591016L20.6513 0.00622214C20.5317 -0.0171696 20.4121 0.029611 20.3643 0.0763945L18.6426 2.27522C18.5231 2.41557 18.4992 2.6027 18.547 2.76645C18.5948 2.93019 18.4513 3.07054 18.284 3.04715L16.8731 2.74305C16.6579 2.69627 16.4188 2.76645 16.2753 2.95358L10.6799 9.97111C10.5842 10.1115 10.3929 10.1582 10.2256 10.0881L8.09738 9.1524C7.90608 9.05883 7.69087 9.08222 7.52349 9.19918L6.44744 9.92432C6.28006 10.0413 6.04093 10.0647 5.84964 9.97111L5.32357 9.7138C4.9888 9.55006 4.58229 9.73719 4.48664 10.0881L4.10405 11.7489C4.0084 12.1465 4.17579 12.5442 4.53447 12.7547L5.34748 13.246L7.95391 14.8132L9.22125 15.5851C9.57993 15.7957 10.0343 15.7489 10.3451 15.4916L12.4733 13.667C12.6407 13.5267 12.9037 13.4799 13.095 13.5968L13.7406 13.9243C13.9559 14.0413 14.2189 13.9945 14.3863 13.8307L15.4623 12.8483C15.6297 12.6846 15.8927 12.6612 16.084 12.7547L17.6862 13.4799C17.9253 13.5968 18.2122 13.5267 18.3796 13.3161L19.1209 12.3805L24.7402 5.33954C25.0033 5.01205 24.8359 4.52083 24.4055 4.42726L23.162 4.14656C22.899 4.09977 22.7794 3.77229 22.9707 3.58516L24.9076 1.22259C25.0989 0.941888 24.9794 0.637799 24.6924 0.591016Z" fill="#00B37E"/>
<path d="M6.15833 14.7654C6.03877 14.6953 5.91921 14.8122 5.96704 14.9292L6.56484 16.473C6.61266 16.59 6.61266 16.707 6.58875 16.8239L6.06268 18.8356C6.03877 18.976 6.08659 19.1163 6.18224 19.1865L7.68871 20.3327C7.83218 20.4263 8.02348 20.4263 8.14304 20.3093L9.72124 18.9526C9.81689 18.8824 9.93645 18.8356 10.0321 18.8122L11.8255 18.6251C11.9451 18.6017 11.9929 18.4379 11.8733 18.3678L6.15833 14.7654Z" fill="#00B37E"/>
<path d="M5.63239 19.9608C5.53674 19.8906 5.39327 19.8672 5.27371 19.914L4.00637 20.5222C3.93463 20.5456 3.8868 20.6157 3.83898 20.6859L1.13691 27.2122C1.13691 27.2356 1.13691 27.2356 1.13691 27.259C1.16082 27.2824 1.18473 27.3058 1.23256 27.3058L1.85427 27.0719C1.87818 27.0719 1.90209 27.0719 1.92601 27.0719C1.94992 27.0952 1.97383 27.142 1.94992 27.1654L0.0130339 30.2765C-0.0347904 30.3467 0.0608604 30.4169 0.108685 30.3467L7.11495 23.4695C7.18668 23.3994 7.21059 23.3292 7.23451 23.2356L7.37798 21.4578C7.37798 21.3409 7.33015 21.2473 7.25842 21.1771L5.63239 19.9608Z" fill="#00B37E"/>
</svg>
